<svg xmlns="http://www.w3.org/2000/svg" xmlns:svg="http://www.w3.org/2000/svg" xmlns:xlink="http://www.w3.org/1999/xlink" id="svg1982" width="48" height="45.998" version="1.1" viewBox="0 0 12.7 12.17"><defs id="defs1976"><linearGradient id="linearGradient2493-2-3-3" x1="18" x2="18" y1="39" y2="45.78" gradientTransform="matrix(0.26458333,0,0,0.22048602,278.494,-5.0521521)" gradientUnits="userSpaceOnUse" xlink:href="#linearGradient2707"/><linearGradient id="linearGradient2707"><stop style="stop-color:#eeeeec;stop-opacity:1" id="stop2709" offset="0"/><stop style="stop-color:#eeeeec;stop-opacity:0" id="stop2711" offset="1"/></linearGradient><linearGradient id="linearGradient2491-1-5-4" x1="24.613" x2="29.182" y1="20.16" y2="12.246" gradientTransform="matrix(0.26458333,0,0,0.26458333,278.494,-6.7719437)" gradientUnits="userSpaceOnUse" xlink:href="#linearGradient2632"/><linearGradient id="linearGradient2632"><stop style="stop-color:#204a87;stop-opacity:1" id="stop2635" offset="0"/><stop style="stop-color:#204a87;stop-opacity:0" id="stop2637" offset="1"/></linearGradient><radialGradient id="radialGradient2629-6-2-2-7" cx="24.5" cy="18.593" r="14.5" fx="24.5" fy="18.593" gradientTransform="matrix(0.77794643,0,0,0.6438175,265.91661,-13.218924)" gradientUnits="userSpaceOnUse" xlink:href="#linearGradient2623"/><linearGradient id="linearGradient2623"><stop style="stop-color:#babdb6;stop-opacity:1" id="stop2625" offset="0"/><stop style="stop-color:#babdb6;stop-opacity:0" id="stop2627" offset="1"/></linearGradient><radialGradient id="radialGradient2655-1-0-8-1" cx="24.013" cy="31.644" r="14.987" fx="24.013" fy="31.644" gradientTransform="matrix(0.87935513,0,0,0.73343875,263.7314,-19.965703)" gradientUnits="userSpaceOnUse" xlink:href="#linearGradient2649"/><linearGradient id="linearGradient2649"><stop style="stop-color:#d3d7cf;stop-opacity:1" id="stop2651" offset="0"/><stop style="stop-color:#d3d7cf;stop-opacity:0" id="stop2653" offset="1"/></linearGradient><radialGradient id="radialGradient2596-7-2-4-9" cx="17.984" cy="40.604" r="21.031" fx="17.984" fy="40.604" gradientTransform="matrix(0.33630811,0,0,0.11910892,278.56774,-1.5487861)" gradientUnits="userSpaceOnUse" xlink:href="#linearGradient2300"/><linearGradient id="linearGradient2300"><stop id="stop2302" offset="0" style="stop-color:#555753;stop-opacity:1"/><stop id="stop2304" offset="1" style="stop-color:#555753;stop-opacity:0"/></linearGradient></defs><metadata id="metadata1979"/><g id="layer1" transform="translate(-278.49399,6.5069293)"><ellipse style="opacity:.5;fill:url(#radialGradient2596-7-2-4-9);fill-opacity:1;fill-rule:evenodd;stroke:none;stroke-width:.2582255;stroke-miterlimit:4;stroke-dasharray:none;stroke-opacity:1" id="path2290-5-2-5-1" cx="284.844" cy="3.415" rx="6.35" ry="2.249"/><ellipse style="opacity:1;fill:#edd400;fill-opacity:1;fill-rule:evenodd;stroke:#786100;stroke-width:.2645835;stroke-miterlimit:4;stroke-dasharray:none;stroke-opacity:1" id="path2773-9-8-9-7" cx="289.481" cy="3.283" rx="1.324" ry=".661"/><ellipse style="opacity:.6;fill:none;fill-opacity:1;fill-rule:evenodd;stroke:none;stroke-width:.26458344;stroke-miterlimit:4;stroke-dasharray:none;stroke-opacity:1" id="path2775-9-3-7-8" cx="289.48" cy="3.283" rx="1.059" ry=".396"/><ellipse style="opacity:1;fill:#edd400;fill-opacity:1;fill-rule:evenodd;stroke:#8c7200;stroke-width:.2645835;stroke-miterlimit:4;stroke-dasharray:none;stroke-opacity:1" id="path2777-1-8-5-5" cx="289.484" cy="2.756" rx="1.324" ry=".661"/><ellipse style="opacity:.6;fill:none;fill-opacity:1;fill-rule:evenodd;stroke:none;stroke-width:.26458344;stroke-miterlimit:4;stroke-dasharray:none;stroke-opacity:1" id="path2779-4-0-3-7" cx="289.483" cy="2.756" rx="1.059" ry=".396"/><rect style="opacity:1;fill:#eeeeec;fill-opacity:1;fill-rule:evenodd;stroke:#555753;stroke-width:.26458344;stroke-miterlimit:4;stroke-dasharray:none;stroke-opacity:1" id="rect1354-9-4-8-4" width="9.271" height="9.259" x="280.207" y="-6.375" rx=".529" ry=".529"/><ellipse style="opacity:1;fill:#edd400;fill-opacity:1;fill-rule:evenodd;stroke:#8c7200;stroke-width:.2645835;stroke-miterlimit:4;stroke-dasharray:none;stroke-opacity:1" id="path2781-1-0-8-1" cx="289.484" cy="2.226" rx="1.324" ry=".661"/><rect style="opacity:1;fill:url(#radialGradient2655-1-0-8-1);fill-opacity:1;fill-rule:evenodd;stroke:none;stroke-width:.26458332;stroke-miterlimit:4;stroke-dasharray:none;stroke-opacity:1" id="rect2229-0-9-3-8" width="7.931" height="6.615" x="280.882" y="-5.449" rx=".43" ry=".43"/><ellipse style="opacity:.6;fill:none;fill-opacity:1;fill-rule:evenodd;stroke:none;stroke-width:.26458344;stroke-miterlimit:4;stroke-dasharray:none;stroke-opacity:1" id="path2783-7-1-1-5" cx="289.483" cy="2.226" rx="1.059" ry=".396"/><path style="opacity:1;fill:url(#radialGradient2629-6-2-2-7);fill-opacity:1;fill-rule:evenodd;stroke:none;stroke-width:.26458332;stroke-miterlimit:4;stroke-dasharray:none;stroke-opacity:1" id="rect2281-5-9-8-9" d="m 282.20644,-5.4490271 v 1.0583334 h -1.06661 v 0.2645831 h 1.06661 v 1.0583332 h -1.06661 v 0.2645833 h 1.06661 v 1.0583333 h -1.06661 v 0.2645834 h 1.06661 v 1.05833361 h -1.06661 v 0.2645833 h 1.06661 v 1.0583333 h 0.26458 v -1.0583333 h 1.05834 v 1.0583333 h 0.26458 v -1.0583333 h 1.05833 v 1.0583333 h 0.26459 v -1.0583333 h 1.05833 v 1.0583333 h 0.26458 v -1.0583333 h 1.05833 v 1.0583333 h 0.26459 v -1.0583333 h 1.05006 v -0.2645833 h -1.05006 V -1.4802774 h 1.05006 v -0.2645834 h -1.05006 v -1.0583333 h 1.05006 v -0.2645833 h -1.05006 v -1.0583332 h 1.05006 v -0.2645831 h -1.05006 v -1.0583334 h -0.26459 v 1.0583334 h -1.05833 v -1.0583334 h -0.26458 v 1.0583334 h -1.05833 v -1.0583334 h -0.26459 v 1.0583334 h -1.05833 v -1.0583334 h -0.26458 v 1.0583334 h -1.05834 v -1.0583334 z m 0.26458,1.3229165 h 1.05834 v 1.0583332 h -1.05834 z m 1.32292,0 h 1.05833 v 1.0583332 h -1.05833 z m 1.32292,0 h 1.05833 v 1.0583332 h -1.05833 z m 1.32291,0 h 1.05833 v 1.0583332 h -1.05833 z m -3.96875,1.3229165 h 1.05834 v 1.0583333 h -1.05834 z m 1.32292,0 h 1.05833 v 1.0583333 h -1.05833 z m 1.32292,0 h 1.05833 v 1.0583333 h -1.05833 z m 1.32291,0 h 1.05833 v 1.0583333 h -1.05833 z m -3.96875,1.3229167 h 1.05834 v 1.05833361 h -1.05834 z m 1.32292,0 h 1.05833 v 1.05833361 h -1.05833 z m 1.32292,0 h 1.05833 v 1.05833361 h -1.05833 z m 1.32291,0 h 1.05833 v 1.05833361 h -1.05833 z"/><ellipse style="opacity:1;fill:#edd400;fill-opacity:1;fill-rule:evenodd;stroke:#8c7200;stroke-width:.2645835;stroke-miterlimit:4;stroke-dasharray:none;stroke-opacity:1" id="path2785-8-6-9-7" cx="289.48" cy="1.696" rx="1.324" ry=".661"/><path style="opacity:1;fill:url(#linearGradient2491-1-5-4);fill-opacity:1;fill-rule:evenodd;stroke:none;stroke-width:.26458332;stroke-miterlimit:4;stroke-dasharray:none;stroke-opacity:1" id="rect2293-7-2-6-5" d="m 286.0429,-3.5969441 -1.29197,2.3328709 -2.278,-1.2692829 -1.58941,2.50828731 0.23151,0.1322916 1.43197,-2.30895811 2.30226,1.26504041 1.42515,-2.52795751 z"/><rect style="opacity:1;fill:#888a85;fill-opacity:1;fill-rule:evenodd;stroke:none;stroke-width:.26458332;stroke-miterlimit:4;stroke-dasharray:none;stroke-opacity:1" id="rect2600-04-5-4-3" width=".265" height="7.938" x=".901" y="-288.813" transform="rotate(90)"/><ellipse style="opacity:.6;fill:none;fill-opacity:1;fill-rule:evenodd;stroke:none;stroke-width:.26458344;stroke-miterlimit:4;stroke-dasharray:none;stroke-opacity:1" id="path2787-8-4-3-8" cx="289.483" cy="1.696" rx="1.059" ry=".396"/><rect style="opacity:1;fill:#888a85;fill-opacity:1;fill-rule:evenodd;stroke:none;stroke-width:.26458332;stroke-miterlimit:4;stroke-dasharray:none;stroke-opacity:1" id="rect2231-0-4-3-8" width=".265" height="6.615" x="280.882" y="-5.449"/><path style="opacity:.2;fill:#fff;fill-opacity:1;fill-rule:evenodd;stroke:none;stroke-width:.26458332;stroke-miterlimit:4;stroke-opacity:1" id="rect2743-9-9-3-3" d="m 280.87525,-5.4490271 h 7.9375 c -3.2175,1.0345553 -2.99973,4.76249991 -7.9375,4.76249991 z"/><ellipse style="opacity:1;fill:#ecd300;fill-opacity:1;fill-rule:evenodd;stroke:#786100;stroke-width:.2645835;stroke-miterlimit:4;stroke-dasharray:none;stroke-opacity:1" id="path2413-5-9-8-1" cx="288.155" cy="4.075" rx="1.324" ry=".661"/><ellipse style="opacity:1;fill:#edd400;fill-opacity:1;fill-rule:evenodd;stroke:#8c7200;stroke-width:.2645835;stroke-miterlimit:4;stroke-dasharray:none;stroke-opacity:1" id="path2789-2-3-6-8" cx="289.484" cy="1.166" rx="1.324" ry=".661"/><ellipse style="opacity:.6;fill:none;fill-opacity:1;fill-rule:evenodd;stroke:none;stroke-width:.26458344;stroke-miterlimit:4;stroke-dasharray:none;stroke-opacity:1" id="path2415-0-6-0-9" cx="288.155" cy="4.075" rx="1.059" ry=".396"/><ellipse style="opacity:1;fill:#ecd300;fill-opacity:1;fill-rule:evenodd;stroke:#8c7200;stroke-width:.2645835;stroke-miterlimit:4;stroke-dasharray:none;stroke-opacity:1" id="path2417-8-0-4-6" cx="288.158" cy="3.548" rx="1.324" ry=".661"/><ellipse style="opacity:.6;fill:none;fill-opacity:1;fill-rule:evenodd;stroke:none;stroke-width:.26458344;stroke-miterlimit:4;stroke-dasharray:none;stroke-opacity:1" id="path2791-3-5-8-4" cx="289.483" cy="1.166" rx="1.059" ry=".396"/><ellipse style="opacity:.6;fill:none;fill-opacity:1;fill-rule:evenodd;stroke:none;stroke-width:.26458344;stroke-miterlimit:4;stroke-dasharray:none;stroke-opacity:1" id="path2419-8-0-8-3" cx="288.157" cy="3.548" rx="1.059" ry=".396"/><ellipse style="opacity:1;fill:#ecd300;fill-opacity:1;fill-rule:evenodd;stroke:#8c7200;stroke-width:.2645835;stroke-miterlimit:4;stroke-dasharray:none;stroke-opacity:1" id="path2421-0-2-8-3" cx="288.158" cy="3.018" rx="1.324" ry=".661"/><ellipse style="opacity:1;fill:#edd400;fill-opacity:1;fill-rule:evenodd;stroke:#8c7200;stroke-width:.2645835;stroke-miterlimit:4;stroke-dasharray:none;stroke-opacity:1" id="path2797-4-9-9-3" cx="289.484" cy=".639" rx="1.324" ry=".661"/><ellipse style="opacity:.6;fill:none;fill-opacity:1;fill-rule:evenodd;stroke:none;stroke-width:.26458344;stroke-miterlimit:4;stroke-dasharray:none;stroke-opacity:1" id="path2423-9-4-7-8" cx="288.157" cy="3.018" rx="1.059" ry=".396"/><ellipse style="opacity:1;fill:#ecd300;fill-opacity:1;fill-rule:evenodd;stroke:#8c7200;stroke-width:.2645835;stroke-miterlimit:4;stroke-dasharray:none;stroke-opacity:1" id="path2425-1-3-7-6" cx="288.155" cy="2.488" rx="1.324" ry=".661"/><ellipse style="opacity:.6;fill:none;fill-opacity:1;fill-rule:evenodd;stroke:none;stroke-width:.26458344;stroke-miterlimit:4;stroke-dasharray:none;stroke-opacity:1" id="path2427-9-5-6-0" cx="288.157" cy="2.488" rx="1.059" ry=".396"/><ellipse style="opacity:1;fill:#edd400;fill-opacity:1;fill-rule:evenodd;stroke:#8c7200;stroke-width:.2645835;stroke-miterlimit:4;stroke-dasharray:none;stroke-opacity:1" id="path2799-6-1-4-4" cx="289.48" cy=".108" rx="1.324" ry=".661"/><ellipse style="opacity:1;fill:#ecd300;fill-opacity:1;fill-rule:evenodd;stroke:#8c7200;stroke-width:.2645835;stroke-miterlimit:4;stroke-dasharray:none;stroke-opacity:1" id="path2429-2-7-3-8" cx="288.158" cy="1.958" rx="1.324" ry=".661"/><ellipse style="opacity:.6;fill:none;fill-opacity:1;fill-rule:evenodd;stroke:none;stroke-width:.26458344;stroke-miterlimit:4;stroke-dasharray:none;stroke-opacity:1" id="path2431-5-4-0-8" cx="288.157" cy="1.958" rx="1.059" ry=".396"/><ellipse style="opacity:1;fill:#edd400;fill-opacity:1;fill-rule:evenodd;stroke:#8c7200;stroke-width:.2645835;stroke-miterlimit:4;stroke-dasharray:none;stroke-opacity:1" id="path2801-7-3-3-8" cx="289.484" cy="-.421" rx="1.324" ry=".661"/><ellipse style="opacity:1;fill:#edd400;fill-opacity:1;fill-rule:evenodd;stroke:#8c7200;stroke-width:.2645835;stroke-miterlimit:4;stroke-dasharray:none;stroke-opacity:1" id="path2809-4-1-0-9" cx="289.484" cy="-.951" rx="1.324" ry=".661"/><ellipse style="opacity:1;fill:#fce94f;fill-opacity:1;fill-rule:evenodd;stroke:#8c7200;stroke-width:.2645835;stroke-miterlimit:4;stroke-dasharray:none;stroke-opacity:1" id="path2793-3-4-9-7" cx="289.478" cy="-1.481" rx="1.324" ry=".661"/><ellipse style="opacity:1;fill:#fce94f;fill-opacity:1;fill-rule:evenodd;stroke:#8c7200;stroke-width:.2645835;stroke-miterlimit:4;stroke-dasharray:none;stroke-opacity:1" id="path2761-1-6-2-7" cx="288.153" cy="1.429" rx="1.324" ry=".661"/><ellipse style="opacity:.5;fill:none;fill-opacity:1;fill-rule:evenodd;stroke:#fff;stroke-width:.26458344;stroke-miterlimit:4;stroke-dasharray:none;stroke-opacity:1" id="path2763-4-9-5-6" cx="288.152" cy="1.429" rx="1.059" ry=".396"/><ellipse style="opacity:.5;fill:none;fill-opacity:1;fill-rule:evenodd;stroke:#fff;stroke-width:.265;stroke-miterlimit:4;stroke-dasharray:none;stroke-opacity:1" id="path2795-6-4-4-4" cx="289.476" cy="-1.481" rx="1.059" ry=".396"/><path style="fill:#4e9a06;fill-opacity:1;fill-rule:evenodd;stroke:#2e5c02;stroke-width:.26458326;stroke-miterlimit:4;stroke-opacity:1" id="path2321-4-2-0-3" d="m 278.89083,2.0887086 h 6.35009 v 1.5941759 h -6.35009 z"/><path style="fill:#59af05;fill-opacity:1;fill-rule:evenodd;stroke:#2e5c02;stroke-width:.26458332;stroke-miterlimit:4;stroke-opacity:1" id="path2323-2-2-5-0" d="m 279.63856,0.50428171 h 5.36355 l 0.23877,1.59000319 h -6.35 z"/><rect style="fill:#2e5c02;fill-opacity:1;fill-rule:evenodd;stroke:none;stroke-width:.26458332;stroke-miterlimit:4;stroke-dasharray:none;stroke-opacity:1" id="rect2325-9-6-9-3" width="6.085" height=".265" x="279.023" y="3.027"/><rect style="fill:#2e5c02;fill-opacity:1;fill-rule:evenodd;stroke:none;stroke-width:.26458332;stroke-miterlimit:4;stroke-dasharray:none;stroke-opacity:1" id="rect2327-6-4-4-0" width="6.085" height=".265" x="279.023" y="2.498"/><path style="opacity:.25;fill:none;fill-opacity:1;fill-rule:evenodd;stroke:#fff;stroke-width:.26458332;stroke-miterlimit:4;stroke-opacity:1" id="path2329-1-1-6-9" d="m 279.80041,0.78247921 -0.5209,1.04179689 h 5.6472 l -0.15709,-1.04179689 z"/><rect style="fill:#eeeeec;fill-opacity:1;fill-rule:evenodd;stroke:#555753;stroke-width:.26458338;stroke-miterlimit:4;stroke-dasharray:none;stroke-opacity:1" id="rect2341-0-2-9-2" width="1.306" height="1.616" x="281.545" y="2.085"/><ellipse style="opacity:1;fill:#2e5c02;fill-opacity:1;fill-rule:evenodd;stroke:none;stroke-width:.14314005;stroke-miterlimit:4;stroke-dasharray:none;stroke-opacity:1" id="path2746-4-8-2-5" cx="282.198" cy="1.298" rx="1.323" ry=".397"/><path style="opacity:1;fill:#d3d7cf;fill-opacity:1;fill-rule:evenodd;stroke:#555753;stroke-width:.26458338;stroke-miterlimit:4;stroke-dasharray:none;stroke-opacity:1" id="path2715-2-8-2-4" d="m 281.8013,0.50296221 -0.26459,1.49149889 v 1.6857742 h 1.32292 V 1.9801892 l -0.28939,-1.47722699 z"/><path style="fill:#4e9a06;fill-opacity:1;fill-rule:evenodd;stroke:#2e5c02;stroke-width:.26458323;stroke-miterlimit:4;stroke-opacity:1" id="rect2271-2-9-4-0" d="m 279.94695,3.4068596 h 6.35225 V 5.004699 h -6.35225 z"/><path style="fill:#57ae06;fill-opacity:1;fill-rule:evenodd;stroke:#2e5c02;stroke-width:.26458323;stroke-miterlimit:4;stroke-opacity:1" id="path3816-5-2-7-5" d="m 280.46536,1.828343 h 5.34688 l 0.48681,1.5859051 h -6.34984 z"/><rect style="opacity:1;fill:#2e5c02;fill-opacity:1;fill-rule:evenodd;stroke:none;stroke-width:.26458332;stroke-miterlimit:4;stroke-dasharray:none;stroke-opacity:1" id="rect2441-9-8-7-9" width="6.085" height=".265" x="280.081" y="4.341"/><rect style="opacity:1;fill:#2e5c02;fill-opacity:1;fill-rule:evenodd;stroke:none;stroke-width:.26458332;stroke-miterlimit:4;stroke-dasharray:none;stroke-opacity:1" id="rect2443-2-8-5-4" width="6.085" height=".265" x="280.081" y="3.811"/><path style="opacity:.25;fill:none;fill-opacity:1;fill-rule:evenodd;stroke:#fff;stroke-width:.26458332;stroke-miterlimit:4;stroke-opacity:1" id="path2269-0-8-4-6" d="m 280.66855,2.0998661 -0.339,1.0417968 h 5.59759 l -0.32246,-1.0417968 z"/><ellipse style="opacity:1;fill:#2e5c02;fill-opacity:1;fill-rule:evenodd;stroke:none;stroke-width:.03695855;stroke-miterlimit:4;stroke-dasharray:none;stroke-opacity:1" id="path2267-4-6-8-9" cx="281.132" cy="1.823" rx=".265" ry=".132"/><ellipse style="opacity:1;fill:#2e5c02;fill-opacity:1;fill-rule:evenodd;stroke:none;stroke-width:.03695855;stroke-miterlimit:4;stroke-dasharray:none;stroke-opacity:1" id="path3843-4-8-1-2" cx="285.1" cy="1.823" rx=".265" ry=".132"/><ellipse style="opacity:1;fill:#2e5c02;fill-opacity:1;fill-rule:evenodd;stroke:none;stroke-width:.14313994;stroke-miterlimit:4;stroke-dasharray:none;stroke-opacity:1" id="path3837-9-3-2-2" cx="283.257" cy="2.621" rx="1.323" ry=".397"/><ellipse style="opacity:1;fill:#2e5c02;fill-opacity:1;fill-rule:evenodd;stroke:none;stroke-width:.0454997;stroke-miterlimit:4;stroke-dasharray:none;stroke-opacity:1" id="path3839-9-8-8-4" cx="281.003" cy="2.881" rx=".401" ry=".132"/><ellipse style="opacity:1;fill:#2e5c02;fill-opacity:1;fill-rule:evenodd;stroke:none;stroke-width:.04526485;stroke-miterlimit:4;stroke-dasharray:none;stroke-opacity:1" id="path3841-3-3-9-7" cx="285.241" cy="2.885" rx=".397" ry=".132"/><path style="opacity:1;fill:#d3d7cf;fill-opacity:1;fill-rule:evenodd;stroke:#555753;stroke-width:.26458338;stroke-miterlimit:4;stroke-dasharray:none;stroke-opacity:1" id="rect1372-6-3-3-7" d="m 282.85963,1.8326522 -0.26458,1.4883379 v 1.6822015 h 1.32291 V 3.3067484 l -0.28939,-1.4740962 z"/><rect style="opacity:1;fill:#888a85;fill-opacity:1;fill-rule:evenodd;stroke:none;stroke-width:.26458332;stroke-miterlimit:4;stroke-dasharray:none;stroke-opacity:1" id="rect2721-0-3-6-5" width="1.058" height="1.323" x="282.727" y="3.547"/><rect style="opacity:1;fill:url(#linearGradient2493-2-3-3);fill-opacity:1;fill-rule:evenodd;stroke:none;stroke-width:.26458332;stroke-miterlimit:4;stroke-dasharray:none;stroke-opacity:1" id="rect2673-5-8-8-4" width="1.058" height="1.323" x="282.727" y="3.547"/><ellipse style="opacity:1;fill:#2e5c02;fill-opacity:1;fill-rule:evenodd;stroke:none;stroke-width:.04526485;stroke-miterlimit:4;stroke-dasharray:none;stroke-opacity:1" id="path2691-0-0-0-8" cx="284.976" cy="2.356" rx=".397" ry=".132"/><ellipse style="opacity:1;fill:#2e5c02;fill-opacity:1;fill-rule:evenodd;stroke:none;stroke-width:.04526485;stroke-miterlimit:4;stroke-dasharray:none;stroke-opacity:1" id="path2693-2-4-2-1" cx="281.272" cy="2.356" rx=".397" ry=".132"/><ellipse style="opacity:1;fill:#2e5c02;fill-opacity:1;fill-rule:evenodd;stroke:none;stroke-width:.0454997;stroke-miterlimit:4;stroke-dasharray:none;stroke-opacity:1" id="path2748-4-7-1-2" cx="279.945" cy="1.562" rx=".401" ry=".132"/><ellipse style="opacity:1;fill:#2e5c02;fill-opacity:1;fill-rule:evenodd;stroke:none;stroke-width:.04526485;stroke-miterlimit:4;stroke-dasharray:none;stroke-opacity:1" id="path2750-3-6-0-8" cx="284.447" cy="1.562" rx=".397" ry=".132"/><ellipse style="opacity:1;fill:#2e5c02;fill-opacity:1;fill-rule:evenodd;stroke:none;stroke-width:.04526485;stroke-miterlimit:4;stroke-dasharray:none;stroke-opacity:1" id="path2752-5-8-5-9" cx="284.183" cy="1.033" rx=".397" ry=".132"/><ellipse style="opacity:1;fill:#2e5c02;fill-opacity:1;fill-rule:evenodd;stroke:none;stroke-width:.04526485;stroke-miterlimit:4;stroke-dasharray:none;stroke-opacity:1" id="path2754-1-9-1-3" cx="280.214" cy="1.033" rx=".397" ry=".132"/><path id="path2300-6" d="m 284.76958,-0.37374199 c 0.64282,0 1.45852,-0.2450936 1.99303,-0.4338119 0.0735,-0.1146242 0.14756,-0.23052541 0.22102,-0.34833011 -0.38315,-0.1215953 -0.73211,-0.3084269 -0.91703,-0.5148749 0.42874,0 0.93097,-0.1102069 1.37936,-0.2381255 0.11843,-0.196336 0.23305,-0.3888624 0.34451,-0.5775786 -0.34135,-0.121598 -0.64471,-0.2938608 -0.81254,-0.481317 0.37239,0 0.80241,-0.083596 1.20266,-0.1893607 0.47244,-0.820145 2.10131,-2.7251397 2.10131,-2.7251397 -3.98034,1.3267896 -9.04936,6.39579581 -10.37614,10.3761491 l 1.29702,-0.6485099 c 0,0 0.64851,-1.6010048 1.29702,-2.2697813 0.48575,-0.5009544 1.76313,-0.1013317 2.59403,-0.3242556 0.20901,-0.055732 0.55921,-0.45345639 0.96579,-1.01710779 -0.51804,-0.096237 -1.04622,-0.3356433 -1.29004,-0.6079561 z" style="fill:#235089;fill-opacity:1;stroke:#306fbe;stroke-width:.265;stroke-miterlimit:4;stroke-dasharray:none;stroke-opacity:1"/></g></svg>